<svg id="return-of-investment" xmlns="http://www.w3.org/2000/svg" width="152.647" height="162.448" viewBox="0 0 152.647 162.448">
  <path id="Path_372" data-name="Path 372" d="M146.293,22.265a76.544,76.544,0,0,0-107.94,0A76,76,0,0,0,81.561,151.281l-4.473,4.455,6.748,6.712,14.826-14.766L85.652,130.9,78.1,136.7l3.907,5.042a66.719,66.719,0,1,1,36.6-4.556l3.761,8.727A75.873,75.873,0,0,0,146.293,22.265Z" transform="translate(-16)" fill="#d83029"/>
  <path id="Path_373" data-name="Path 373" d="M214.542,139.966c5.4,0,9.792,3.56,9.792,7.935h9.54c0-8.128-6.2-14.974-14.562-16.894v-7.134h-9.54v7.134c-8.36,1.92-14.562,8.766-14.562,16.894,0,9.611,8.672,17.43,19.332,17.43,5.4,0,9.792,3.56,9.792,7.935s-4.392,7.935-9.792,7.935-9.792-3.56-9.792-7.935h-9.54c0,8.127,6.2,14.973,14.562,16.893v7.134h9.54v-7.134c8.36-1.92,14.562-8.766,14.562-16.893,0-9.611-8.672-17.43-19.332-17.43-5.4,0-9.792-3.56-9.792-7.935S209.143,139.966,214.542,139.966Z" transform="translate(-138.219 -84.57)" fill="#d83029"/>
</svg>
